<?xml version="1.0" encoding="UTF-8"?><!DOCTYPE svg PUBLIC "-//W3C//DTD SVG 1.1//EN" "http://www.w3.org/Graphics/SVG/1.1/DTD/svg11.dtd"><svg xmlns="http://www.w3.org/2000/svg" xmlns:xlink="http://www.w3.org/1999/xlink"><symbol id="android-logo"><path d="M34.886 14.062H8.114v19.133a3.553 3.553 0 00.96 2.468 3.697 3.697 0 002.422 1.159v7.453c.044.737.374 1.43.922 1.936a2.986 2.986 0 002.026.789c.753 0 1.478-.282 2.026-.789a2.869 2.869 0 00.922-1.936v-7.433h8.236v7.433c.045.737.375 1.43.922 1.936a2.985 2.985 0 002.026.789c.754 0 1.478-.282 2.026-.789a2.869 2.869 0 00.922-1.936v-7.453a3.707 3.707 0 002.426-1.158c.63-.673.975-1.555.967-2.468V14.402l-.03-.34zM2.953 15.745c.78 0 1.53.304 2.081.845.552.54.862 1.275.862 2.04v12.402c.001.38-.074.756-.22 1.107a2.88 2.88 0 01-.638.94 2.947 2.947 0 01-.956.627 2.995 2.995 0 01-3.217-.627A2.866 2.866 0 010 31.032V18.63c0-.38.076-.756.225-1.107a2.9 2.9 0 011.599-1.562 2.995 2.995 0 011.13-.216zm37.104 0c.78 0 1.53.304 2.081.845.552.54.862 1.275.862 2.04v12.402a2.845 2.845 0 01-.858 2.047 2.947 2.947 0 01-.956.627 2.994 2.994 0 01-3.217-.627 2.867 2.867 0 01-.865-2.047V18.63c0-.38.076-.756.225-1.107.148-.35.366-.669.64-.937.275-.268.6-.48.959-.625a2.995 2.995 0 011.129-.216zM8.175 12.058h26.568a10.404 10.404 0 00-3.26-7.293L34.049.498a.307.307 0 00-.122-.461.322.322 0 00-.42.11l-2.42 4.157A16.708 16.708 0 0021.458.898a16.977 16.977 0 00-9.575 3.406L9.504.187a.325.325 0 00-.184-.16.333.333 0 00-.246.01.315.315 0 00-.112.42l2.493 4.238a10.443 10.443 0 00-3.28 7.363zm17.699-5.21c0-.398.161-.78.449-1.062a1.55 1.55 0 012.167 0c.288.282.45.664.45 1.063 0 .398-.162.78-.45 1.062-.287.282-.677.44-1.084.44-.406 0-.796-.158-1.083-.44a1.488 1.488 0 01-.45-1.062zm-11.384 0c0-.398.162-.78.449-1.062a1.554 1.554 0 012.168 0c.287.282.449.664.449 1.063 0 .398-.162.78-.45 1.062-.287.282-.677.44-1.083.44-.407 0-.797-.158-1.084-.44a1.488 1.488 0 01-.449-1.062z" fill="#A4C639"/></symbol><symbol id="apple-logo"><path d="M39.245 29.74a12.09 12.09 0 002.127 6.787A12.668 12.668 0 0047 41.063a29.794 29.794 0 01-4 7.96c-2.401 3.413-4.905 6.816-8.844 6.904-3.938.09-5.088-2.219-9.526-2.219-4.437 0-5.8 2.15-9.465 2.288-3.663.139-6.686-3.718-9.088-7.111-4.956-6.905-8.752-19.639-3.664-28.2a13.925 13.925 0 015.024-5.037 14.489 14.489 0 016.935-1.977c3.724-.069 7.246 2.427 9.526 2.427 2.28 0 6.564-3.009 11.062-2.565a13.85 13.85 0 015.954 1.576 13.387 13.387 0 014.61 3.977c-.275.168-6.31 3.571-6.249 10.653h-.03zM31.978 8.936C34.16 6.46 35.238 3.247 34.981 0c-3.305.302-6.364 1.82-8.55 4.241-1.862 2.092-3.5 5.445-3.053 8.66 3.247.247 6.555-1.597 8.57-3.945" fill="#fff"/></symbol><symbol id="arrow-left"><path opacity=".3" d="M2.041 20.503L21.748 1.415A.821.821 0 0022 .83a.801.801 0 00-.252-.585A.86.86 0 0021.14 0a.882.882 0 00-.608.245L.252 19.909a.832.832 0 00-.252.59.81.81 0 00.253.59l20.279 19.673a.894.894 0 00.613.238.877.877 0 00.473-.143.838.838 0 00.313-.372.809.809 0 00-.183-.902L2.041 20.503z"/></symbol><symbol id="arrow-right"><path opacity=".3" d="M19.959 20.497L.252 39.585A.822.822 0 000 40.17a.801.801 0 00.252.585A.86.86 0 00.86 41a.88.88 0 00.608-.245l20.28-19.664a.834.834 0 00.252-.59.811.811 0 00-.253-.59L1.468.239A.894.894 0 00.855 0a.878.878 0 00-.473.143.838.838 0 00-.313.372.81.81 0 00.183.902l19.707 19.08z"/></symbol><symbol id="contrast" viewBox="0 0 16 16"><path d="M8 2a6 6 0 110 12A6 6 0 018 2zm0-2a8 8 0 100 16A8 8 0 008 0zm0 12.145a4.26 4.26 0 000-8.5"/></symbol><symbol id="crop" viewBox="0 0 22 22"><path d="M16 14h2V6a2 2 0 00-2-2H8v2h8v8zM6 16V0H4v4H0v2h4v10a2 2 0 002 2h10v4h2v-4h4v-2H6z"/></symbol><symbol id="facebook"><path d="M6.509 3.193H9V0H6.02C2.762.171 1.6 2.271 2.077 5.816H0v3.336h2.076V18h3.945V9.152h2.958V5.816H6.01c-.02-.998-.041-2.29.499-2.623z"/></symbol><symbol id="fill" viewBox="0 0 24 22"><path d="M16.56 9.148L7.62 0 6.205 1.448l2.38 2.435L3.44 9.148a1.558 1.558 0 000 2.169l5.5 5.628a1.48 1.48 0 002.12 0l5.5-5.628a1.558 1.558 0 000-2.169zM5.205 10.233L10 5.33l4.795 4.902h-9.59zM19 11.767s-2 2.216-2 3.582c0 .543.21 1.063.586 1.447.375.384.884.6 1.414.6.53 0 1.04-.216 1.414-.6A2.07 2.07 0 0021 15.349c0-1.366-2-3.582-2-3.582zm5 8.698H0V22h24v-1.535z"/></symbol><symbol id="htmlacademy"><path d="M13.643.016L13.5 0 0 1.407v24.606L13.5 34 27 26.013V1.407L13.643.016zm11.591 25L13.5 31.956 1.766 25.015V14.93l11.685 6.916.02 1.253-8.017-4.743-.011 1.225 8.046 4.809.02 1.286-8.045-4.758-.01 1.226L13.5 26.95l8.124-4.833V16.91l3.62-2.15-.01 10.256zm0-11.564l-3.22 1.88-1.482.875-7.065-4.187-.011 1.225 6.04 3.573-.053.031-.13.076-.86.492-4.986-2.948-.011 1.225 3.936 2.328-.933.61-.021.012-2.971-1.742-.011 1.225 1.947 1.135-1.988 1.186-11.618-6.872 11.638-6.958 11.8 6.834zm0-1.225L13.44 5.31 1.766 12.22V2.99L13.5 1.764 25.234 2.99v9.237z"/></symbol><symbol id="like"><path d="M6.469 12a.782.782 0 01-.58-.25C1.958 7.42 1.036 6.44.86 6.17A3.765 3.765 0 010 3.8a3.723 3.723 0 01.63-2.045A3.921 3.921 0 012.3.355a4.09 4.09 0 012.187-.32A4.031 4.031 0 016.51.9 4.08 4.08 0 019.07 0a4.013 4.013 0 012.78 1.117A3.733 3.733 0 0113 3.8a3.409 3.409 0 01-.923 2.38l-5.038 5.56a.757.757 0 01-.57.25V12zM2.073 5.28c.218.26 2.56 2.84 4.396 4.86l4.478-4.94a1.96 1.96 0 00.539-1.4c0-.618-.254-1.21-.707-1.648A2.461 2.461 0 009.07 1.47a2.61 2.61 0 00-1.097.252c-.341.163-.64.398-.873.688a.844.844 0 01-.612.28.757.757 0 01-.332-.082.729.729 0 01-.258-.218 2.43 2.43 0 00-.868-.682 2.49 2.49 0 00-2.372.132 2.369 2.369 0 00-.882.968 2.267 2.267 0 00.296 2.462v.01z"/></symbol><symbol id="logo-dot"><path d="M7.94 3.574a3.678 3.678 0 01-2.574-1.046A3.554 3.554 0 014.294 0c0 .948-.383 1.857-1.065 2.527A3.668 3.668 0 01.66 3.574c.965.003 1.89.382 2.57 1.054a3.554 3.554 0 011.065 2.53 3.56 3.56 0 011.071-2.53A3.688 3.688 0 017.94 3.573z"/></symbol><symbol id="logo-glass-desktop"><path d="M43.287 19.067h.733a2.47 2.47 0 00-.906-.887 2.523 2.523 0 00-1.233-.328 2.03 2.03 0 01-1.166-.368 1.978 1.978 0 01-.732-.965c-.724.206-1.427.477-2.1.81h.191c.533 0 1.044.208 1.42.578.377.37.589.873.589 1.397.005.095.005.19 0 .286a8.977 8.977 0 013.204-.523z"/><path d="M60.733 27.647l-5.192-21.08C55.179 4.245 52.929 0 46.903 0c-.4 0-.783.156-1.066.434a1.469 1.469 0 00-.44 1.047c0 .393.158.77.44 1.047a1.52 1.52 0 001.066.434c4.871 0 5.594 3.683 5.665 4.088l4.78 19.452H55.25a11.721 11.721 0 00-1.724-4.78 11.946 11.946 0 00-3.599-3.633 2.502 2.502 0 00-1.116.908c-.274.404-.42.878-.42 1.363.005.086.005.171 0 .257a9.148 9.148 0 012.922 3.207 8.974 8.974 0 011.095 4.169 9.042 9.042 0 01-.14 1.48 8.849 8.849 0 01-3.05 5.393 9.132 9.132 0 01-5.885 2.141 9.132 9.132 0 01-5.885-2.141 8.849 8.849 0 01-3.049-5.392 9.031 9.031 0 01-.14-1.481c.015-1.37.341-2.72.954-3.95a2.023 2.023 0 01-1.33-.625 1.957 1.957 0 01-.538-1.35.694.694 0 00-.191-.483 11.566 11.566 0 00-1.798 4.936h-1.868a11.782 11.782 0 00-3.933-7.54 12.17 12.17 0 00-8.05-3.03 12.17 12.17 0 00-8.05 3.03 11.782 11.782 0 00-3.932 7.54h-2.08L8.233 7.05c.061-.405.814-4.088 5.666-4.088.4 0 .783-.156 1.065-.434.282-.277.441-.654.441-1.047 0-.393-.159-.77-.441-1.047A1.52 1.52 0 0013.899 0C7.872 0 5.623 4.246 5.26 6.566L.058 27.647a1.38 1.38 0 00.247 1.263 1.43 1.43 0 001.189.534h4.018c.082.611.21 1.215.382 1.807a.731.731 0 00.1-.355c0-.524.212-1.026.589-1.397.376-.37.887-.578 1.42-.578.162.004.324.024.482.06a8.536 8.536 0 01-.07-.988c.002-.497.046-.992.13-1.481a8.848 8.848 0 013.042-5.414 9.131 9.131 0 015.897-2.152c2.165 0 4.258.764 5.898 2.152a8.848 8.848 0 013.041 5.414c.085.49.128.984.131 1.48a8.775 8.775 0 01-1.334 4.7 8.984 8.984 0 01-3.656 3.298 9.174 9.174 0 01-9.503-.858c-.363.31-.826.48-1.306.483a.76.76 0 00-.526.22.734.734 0 00-.217.521 1.946 1.946 0 01-.181.8 12.088 12.088 0 007.643 2.705 12.174 12.174 0 008.012-2.951 11.789 11.789 0 004-7.436h1.829a11.784 11.784 0 003.944 7.51A12.171 12.171 0 0043.292 40a12.17 12.17 0 008.033-3.015 11.784 11.784 0 003.944-7.511h4.018c.232.016.465-.024.678-.117.212-.093.398-.236.541-.417a1.38 1.38 0 00.227-1.293z"/></symbol><symbol id="logo-glass"><path clip-rule="evenodd" d="M53.892 6.586l5.038 21.145a1.418 1.418 0 01-.22 1.297 1.356 1.356 0 01-1.183.535H53.52c-.69 5.812-5.57 10.315-11.489 10.315-5.917 0-10.798-4.503-11.488-10.314h-1.965C27.887 35.442 22.953 40 16.968 40c-5.994 0-10.934-4.573-11.612-10.466H1.45a1.364 1.364 0 01-1.154-.536 1.418 1.418 0 01-.24-1.267l5.05-21.145C5.455 4.26 7.639 0 13.486 0c.388 0 .76.157 1.034.435a1.5 1.5 0 010 2.101 1.45 1.45 0 01-1.034.435c-4.707 0-5.438 3.694-5.497 4.1L3.341 26.602h2.034c.746-5.817 5.652-10.31 11.593-10.31 5.939 0 10.843 4.488 11.593 10.3l1.998.01c.745-5.75 5.598-10.189 11.473-10.189 5.886 0 10.746 4.456 11.477 10.222v-.053h2.137l-4.639-19.51c-.068-.407-.77-4.1-5.497-4.1a1.45 1.45 0 01-1.033-.436 1.498 1.498 0 01-.428-1.05c0-.394.154-.772.428-1.05A1.45 1.45 0 0145.51 0c5.848 0 8.03 4.259 8.382 6.586zm-28.22 22.977a9.122 9.122 0 00-.022-2.97c-.725-4.195-4.336-7.383-8.681-7.383-4.349 0-7.961 3.192-8.683 7.391a9.114 9.114 0 00-.025 2.94c.66 4.273 4.308 7.541 8.707 7.541 4.392 0 8.034-3.257 8.704-7.518zm24.942 0c.073-.461.112-.934.112-1.417 0-4.868-3.893-8.815-8.694-8.815-4.802 0-8.695 3.947-8.695 8.815 0 .482.039.956.112 1.418.669 4.194 4.257 7.397 8.583 7.397 4.325 0 7.913-3.203 8.582-7.397z"/></symbol><symbol id="logo-pink"><path d="M.193 2.425c0-.333.133-.652.369-.89.237-.239.558-.376.897-.384H8.67c5.113 0 8.477 2.676 8.477 7.06v.06c0 4.798-4.077 7.286-8.899 7.286H2.754v6.734a1.244 1.244 0 01-.332.965 1.286 1.286 0 01-.948.41 1.304 1.304 0 01-.949-.41 1.26 1.26 0 01-.332-.965V2.425zM8.35 13.286c3.746 0 6.207-1.975 6.207-4.937V8.29c0-3.18-2.42-4.828-6.026-4.828H2.805v9.785l5.544.04zM22.018 2.267a1.245 1.245 0 01.333-.965 1.286 1.286 0 01.948-.41 1.304 1.304 0 01.948.41 1.259 1.259 0 01.333.965V22.29a1.243 1.243 0 01-.332.965 1.286 1.286 0 01-.949.41 1.304 1.304 0 01-.948-.41 1.26 1.26 0 01-.332-.965V2.267zm9.181.029c.007-.326.143-.637.38-.867.235-.23.553-.362.885-.367h.352a1.57 1.57 0 011.295.731l13.75 17.23V2.237c0-.325.132-.636.365-.866a1.257 1.257 0 011.761 0c.234.23.365.542.365.866v20.094a1.111 1.111 0 01-.327.829 1.147 1.147 0 01-.838.336h-.13a1.737 1.737 0 01-.756-.23 1.705 1.705 0 01-.57-.54L33.669 5.09v17.24a1.233 1.233 0 01-.352.853c-.224.23-.53.366-.853.381a1.256 1.256 0 01-.871-.369 1.214 1.214 0 01-.354-.865V2.296h-.04zm25.541-.029a1.243 1.243 0 01.332-.965 1.286 1.286 0 01.949-.41 1.305 1.305 0 01.948.41 1.259 1.259 0 01.332.965V14.44L72.198 1.438a1.496 1.496 0 011.004-.444 1.3 1.3 0 01.87.38c.23.232.36.54.365.864a1.255 1.255 0 01-.421.889l-8.035 7.82 8.667 10.427c.227.258.352.587.352.928a1.273 1.273 0 01-.41.91 1.319 1.319 0 01-.946.354 1.23 1.23 0 01-1.004-.573l-8.447-10.358-4.892 4.8v4.837a1.236 1.236 0 01-.373.887 1.278 1.278 0 01-.902.367 1.295 1.295 0 01-.902-.367 1.254 1.254 0 01-.374-.887V2.267h-.01z"/></symbol><symbol id="logo-stars"><path d="M45.92 4.917a4.577 4.577 0 01-1.729-.335 4.516 4.516 0 01-1.466-.96 4.43 4.43 0 01-.98-1.44A4.37 4.37 0 0141.4.483a4.406 4.406 0 01-1.328 3.136 4.56 4.56 0 01-3.192 1.298 4.57 4.57 0 013.193 1.304 4.416 4.416 0 011.327 3.14c0-1.18.476-2.31 1.323-3.143a4.56 4.56 0 013.196-1.301zM33.074 8.383a2.786 2.786 0 01-1.953-.796 2.692 2.692 0 01-.809-1.92c0 .719-.29 1.408-.805 1.917a2.786 2.786 0 01-1.947.799c.73 0 1.43.285 1.946.792.516.507.806 1.195.806 1.913a2.693 2.693 0 01.813-1.914 2.787 2.787 0 011.95-.791zM3.845 21.838a2.786 2.786 0 001.94.803 2.786 2.786 0 00-1.94.802 2.692 2.692 0 00-.802 1.913c0-.719-.29-1.408-.805-1.917a2.787 2.787 0 00-1.947-.798c.73-.003 1.43-.29 1.947-.8a2.692 2.692 0 00.805-1.916c0 .717.288 1.405.802 1.913z"/></symbol><symbol id="microsoft-logo"><path d="M20.908 19.524H0V0h20.908v19.524z" fill="#F05423"/><path d="M44 19.524H23.092V0H44v19.524z" fill="#84C441"/><path d="M20.908 41H0V21.476h20.908V41z" fill="#2DABE2"/><path d="M44 41H23.092V21.476H44V41z" fill="#F9BC15"/></symbol><symbol id="no"><path d="M15.644 13.507l10.91-10.92a1.503 1.503 0 000-2.14 1.524 1.524 0 00-2.14 0l-10.909 10.92L2.586.447a1.504 1.504 0 00-2.14 0 1.524 1.524 0 000 2.14l10.92 10.92-10.92 10.91a1.503 1.503 0 000 2.139 1.514 1.514 0 002.14 0l10.919-10.91 10.909 10.91a1.514 1.514 0 002.14-2.14l-10.91-10.91z"/></symbol><symbol id="twitter"><path d="M11.564.169A3.675 3.675 0 0113.672.14c.688.196 1.291.59 1.723 1.122.71-.21 1.41-.447 2.131-.656a2.03 2.03 0 01-.253.917c-.157.284-.38.533-.653.729.253.026.508-.002.747-.081.24-.08.456-.208.633-.376-.099.414-.3.801-.588 1.131-.287.33-.653.594-1.07.772-.247 6.27-3.367 10.467-10.689 10.296H5.15c-.443 0-4.418-.428-5.149-1.75 1.752.245 3.539-.147 4.984-1.095-1.03-.286-2.852-.447-3.161-2.74.388.133.81.163 1.215.085C1.76 7.705.34 7.039.422 4.993a2.17 2.17 0 001.421.438C1.102 5.203-.247 2.31.896.825c1.926 1.723 3.964 3.35 7.59 3.512C8.711 2.205 9.69.777 11.563.169z"/></symbol><symbol id="yes"><path d="M30.556.43a1.54 1.54 0 00-.499-.318 1.607 1.607 0 00-1.179 0 1.54 1.54 0 00-.499.318L10.374 17.496 2.578 10.11a1.582 1.582 0 00-1.072-.39 1.576 1.576 0 00-1.057.425A1.42 1.42 0 000 11.146c-.007.377.14.74.411 1.016l8.88 8.412c.142.135.31.243.497.316a1.596 1.596 0 001.67-.316L30.556 2.482c.284-.274.444-.642.444-1.026S30.84.703 30.556.43z"/></symbol><symbol id="youtube"><path d="M1.834 12.809a1.257 1.257 0 01-1.285.03 1.097 1.097 0 01-.443-.457.97.97 0 01-.092-.603V1.221A.97.97 0 01.106.618 1.09 1.09 0 01.549.16a1.256 1.256 0 011.285.031l12.4 5.502c1.022.445 1.022 1.169 0 1.614l-12.4 5.502z"/></symbol></svg>